<svg width="64" height="63" viewBox="0 0 64 63" fill="none" xmlns="http://www.w3.org/2000/svg">
<path d="M4.63892 45.8009C4.82893 45.7994 5.01551 45.75 5.1814 45.6574C5.3473 45.5647 5.48716 45.4317 5.58808 45.2707C5.68899 45.1097 5.74769 44.9259 5.75876 44.7362C5.76983 44.5465 5.73291 44.357 5.65142 44.1854C3.35201 39.4109 2.3894 34.1025 2.86592 28.8246C4.78292 5.55964 32.927 -6.03461 50.6615 9.00214C50.8907 9.19354 51.1865 9.28608 51.4839 9.25939C51.7812 9.2327 52.0558 9.08897 52.2472 8.85983C52.4386 8.63068 52.5312 8.33488 52.5045 8.03751C52.4778 7.74014 52.3341 7.46554 52.1049 7.27414C32.99 -8.92811 2.69154 3.57289 0.626042 28.6266C0.112781 34.3096 1.14927 40.0255 3.62529 45.1664C3.71743 45.3566 3.86127 45.517 4.04034 45.6292C4.21941 45.7414 4.42759 45.8009 4.63892 45.8009ZM54.6452 11.2566C54.5317 11.3513 54.4379 11.4674 54.3693 11.5983C54.3007 11.7292 54.2585 11.8724 54.2453 12.0196C54.232 12.1668 54.2479 12.3152 54.292 12.4563C54.3361 12.5973 54.4075 12.7283 54.5023 12.8418C69.7224 30.8969 57.5567 59.1873 34.0048 60.6768C33.8891 60.6843 33.7752 60.7098 33.6673 60.7521L10.8433 60.751L13.9168 57.6888C14.1373 57.4633 14.3085 57.1944 14.4194 56.8992C14.5302 56.6039 14.5783 56.2888 14.5607 55.9739C14.543 55.659 14.4599 55.3513 14.3167 55.0703C14.1735 54.7893 13.9733 54.5412 13.7289 54.3419C11.7326 52.7454 9.95386 50.8944 8.43804 48.8361C8.26111 48.5957 7.99589 48.4353 7.70073 48.3904C7.40557 48.3454 7.10465 48.4196 6.86417 48.5965C6.62368 48.7734 6.46333 49.0387 6.41839 49.3338C6.37346 49.629 6.44761 49.9299 6.62454 50.1704C8.25689 52.3881 10.1747 54.3808 12.3283 56.0969L9.25479 59.1569C8.94706 59.4748 8.73901 59.8757 8.65628 60.3103C8.57355 60.7449 8.61975 61.1943 8.78919 61.603C8.95862 62.0117 9.24389 62.3619 9.60987 62.6105C9.97585 62.8591 10.4065 62.9952 10.8489 63.0021H34.1702C34.346 63.0023 34.5195 62.9611 34.6764 62.8818C40.4096 62.3974 45.9004 60.3507 50.5519 56.9643C55.2034 53.5778 58.8377 48.9812 61.0597 43.6739C63.2817 38.3666 64.0065 32.5518 63.1553 26.8615C62.304 21.1712 59.9093 15.823 56.2314 11.3984C56.1367 11.2848 56.0204 11.191 55.8894 11.1224C55.7583 11.0538 55.615 11.0117 55.4677 10.9985C55.3204 10.9854 55.1719 11.0014 55.0307 11.0457C54.8896 11.09 54.7586 11.1617 54.6452 11.2566Z" fill="#FF5F2A"/>
<path d="M47.0278 26.8435V24.589C47.0263 23.396 46.5517 22.2523 45.7081 21.4087C44.8645 20.5651 43.7208 20.0905 42.5278 20.089H38.1875C36.9943 20.0902 35.8503 20.5647 35.0065 21.4083C34.1626 22.2519 33.6879 23.3958 33.6864 24.589C33.7055 26.2315 33.6122 32.7228 33.8057 34.2415C34.1543 36.6657 35.3703 38.8812 37.228 40.4773C39.0857 42.0733 41.4591 42.9415 43.9082 42.9209C44.1894 42.9209 44.4725 42.9093 44.7575 42.886C45.2438 42.913 45.7243 42.77 46.1166 42.4813C46.5089 42.1927 46.7885 41.7766 46.9074 41.3043C47.3079 39.6426 45.8612 38.8518 45.1659 38.4726C42.2747 37.0923 41.3387 33.7083 41.4613 31.3435C44.3604 31.6641 46.9884 29.9046 47.0278 26.8435ZM43.187 39.8778C43.5874 40.1689 44.0098 40.4284 44.4504 40.654C42.4701 40.8085 40.5044 40.2101 38.946 38.9784C37.3877 37.7466 36.3515 35.9722 36.0444 34.0098C35.8667 32.6035 35.9555 26.1134 35.9364 24.589C35.937 23.9925 36.1743 23.4205 36.5961 22.9987C37.0179 22.5769 37.5899 22.3396 38.1864 22.339H42.5289C43.1255 22.3396 43.6974 22.5769 44.1192 22.9987C44.5411 23.4205 44.7783 23.9925 44.7789 24.589V26.8435C44.7783 27.4401 44.5411 28.012 44.1192 28.4338C43.6974 28.8557 43.1255 29.0929 42.5289 29.0935H40.3914C40.1098 29.0933 39.8384 29.1987 39.6307 29.3888C39.4231 29.579 39.2943 29.8401 39.2698 30.1206C38.8907 34.4778 40.3183 38.0294 43.187 39.8778ZM30.3114 26.8435V24.589C30.3099 23.396 29.8353 22.2523 28.9918 21.4087C28.1482 20.5651 27.0044 20.0905 25.8114 20.089H21.47C20.277 20.0905 19.1333 20.5651 18.2897 21.4087C17.4461 22.2523 16.9715 23.396 16.97 24.589C16.988 26.2315 16.8947 32.7228 17.0893 34.2415C17.438 36.6657 18.6539 38.8812 20.5116 40.4773C22.3693 42.0733 24.7427 42.9415 27.1918 42.9209C27.473 42.9209 27.7562 42.9093 28.0412 42.886C28.5273 42.9128 29.0075 42.7696 29.3996 42.481C29.7916 42.1924 30.071 41.7764 30.1899 41.3043C30.5915 39.6426 29.1437 38.8518 28.4484 38.4726C25.5583 37.0923 24.6212 33.7083 24.7438 31.3435C27.644 31.6641 30.272 29.9046 30.3114 26.8435ZM26.4707 39.8778C26.871 40.1689 27.2934 40.4284 27.734 40.654C25.7536 40.8083 23.7879 40.2098 22.2294 38.9781C20.671 37.7464 19.6345 35.9722 19.3269 34.0098C19.1503 32.6035 19.2392 26.1134 19.22 24.589C19.2206 23.9925 19.4579 23.4205 19.8797 22.9987C20.3015 22.5769 20.8735 22.3396 21.47 22.339H25.8125C26.4091 22.3396 26.981 22.5769 27.4029 22.9987C27.8247 23.4205 28.0619 23.9925 28.0625 24.589V26.8435C28.0619 27.4401 27.8247 28.012 27.4029 28.4338C26.981 28.8557 26.4091 29.0929 25.8125 29.0935H23.675C23.3937 29.0936 23.1225 29.1991 22.9151 29.3892C22.7077 29.5794 22.579 29.8403 22.5545 30.1206C22.1754 34.4778 23.603 38.0294 26.4718 39.8778H26.4707Z" fill="#FF5F2A"/>
</svg>
