<svg width="665" height="365" viewBox="0 0 665 365" fill="none" xmlns="http://www.w3.org/2000/svg">
<path d="M199.11 0.605965L202.08 0.476501C205.633 0.587142 209.616 4.36945 212.319 6.45394C220.174 12.5101 228.733 19.1365 235.438 26.4668C237.287 28.4879 239.099 31.0658 239.554 33.8295C240.359 38.7136 238.802 44.7373 238.311 49.667L235.282 83.45C246.573 63.9807 261.44 48.1905 281.362 37.4373C310.282 21.8273 348.3 18.4499 379.723 27.9114C392.206 31.6697 404.963 37.4561 415.503 45.2038C418.78 47.6128 421.666 50.4404 424.863 52.9395C429.001 56.1749 433.499 58.9061 437.55 62.2949C451.955 74.3444 462.366 89.6003 471.177 106.008L545.605 9.04373C549.41 8.27438 553.038 8.54243 556.894 8.64565L571.434 9.00324L613.51 10.2323C618.591 10.4404 624.389 10.133 629.378 10.863C631.308 11.1453 633.097 12.2209 634.595 13.4289C637.676 15.9171 640.347 19.124 642.972 22.0816L656.755 38.522L664.427 47.7919C664.876 50.0469 664.165 52.8003 663.749 55.0479L661.345 67.203L655.508 95.6268L643.958 154.407L635.278 203.382C639.971 205.756 644.465 208.594 648.206 212.314C656.852 220.907 662.057 235.037 661.995 247.186C661.978 250.698 661.351 254.192 660.508 257.591C656.647 273.115 647.13 285.166 631.343 289.466C629.474 289.975 627.589 290.292 625.676 290.585C625.345 290.636 624.047 290.725 623.882 290.854C623.87 290.863 623.677 292.016 623.671 292.062L616.546 338.796C615.846 342.945 615.606 347.879 614.308 351.841C613.596 354.007 612.423 355.803 610.782 357.38C608.909 359.181 606.551 360.418 603.982 360.859C601.55 361.275 598.76 361.068 596.288 361.067L582.699 361.053L534.742 360.886C533.01 359.642 531.691 357.811 530.35 356.17L523.913 348.132C520.573 343.965 516.771 340.024 513.942 335.488C510.322 328.776 511.39 320.558 512.31 313.322L514.642 297.521C510.309 297.464 462.59 297.591 462.517 297.636C461.756 298.102 459.864 302.146 459.287 303.12C457.173 306.683 454.929 310.184 452.454 313.506C440.939 328.961 426.322 342.197 409.084 350.946C380.087 365.662 343.891 369.25 312.904 359.089C294.554 353.071 278.105 341.781 265.773 326.88C263.724 324.403 261.73 321.835 259.929 319.17C258.628 317.243 257.438 315.029 255.869 313.325C253.065 310.279 249.643 307.707 246.733 304.718C238.627 296.391 232.759 287.184 227.548 276.872C224.687 279.789 221.708 282.684 218.287 284.939C216.674 286.003 214.173 286.959 212.801 288.203C211.17 289.681 210.872 340.702 209.77 346.648C209.416 348.557 208.518 350.319 207.377 351.87C206.057 353.664 203.744 356.391 201.638 357.217C200.066 357.833 196.695 357.407 194.933 357.403L180.128 357.559C162.689 357.934 145.256 359.038 128.003 361.705C123.166 358.683 118.927 354.239 115.306 349.863C110.628 344.21 104.818 336.699 103.046 329.532C101.569 323.558 102.711 317.659 103.43 311.674L104.703 298.77C87.4545 299.212 69.6122 302.319 52.5855 305.135C46.8896 306.076 41.0684 307.621 35.3447 308.164L34.3748 307.38C31.7942 305.192 29.4238 302.445 27.0569 300.011C14.6805 287.284 1.36624 270.455 0.145902 251.989C-0.673937 239.581 2.09171 226.652 5.17691 214.727C14.3351 179.33 31.3836 146.079 50.4771 115.112C67.5767 87.3783 86.525 61.1531 106.58 35.5028C113.129 27.1266 119.346 17.9913 126.388 10.0423C127.693 8.56866 129.329 7.07273 131.261 6.53778C133.147 6.01594 135.356 5.98115 137.304 5.80435L147.768 4.86506L199.11 0.605965Z" fill="#303030"/>
<path d="M439.676 72.0461C451.324 83.0297 460.807 97.7837 466.891 112.558L462.915 118.655L460.424 122.344C457.644 112.161 455.394 101.893 450.961 92.238C447.761 85.2688 443.46 78.7096 439.676 72.0461Z" fill="white"/>
<path d="M217.874 250.143L224.369 268.152C222.025 271.687 219.241 274.85 215.552 277.011C213.245 278.362 210.798 279.756 208.153 280.298C203.828 281.183 199.036 279.596 194.864 278.501C192.46 277.869 188.641 277.216 186.723 275.631C186.731 274.843 186.667 274.101 187.038 273.38L191.503 272.207C203.573 268.817 211.829 260.956 217.874 250.143Z" fill="white"/>
<path d="M630.557 208.043C635.233 210.453 639.071 213.136 642.927 216.743C650.843 224.161 656.106 236.487 656.368 247.355C656.567 255.58 653.537 263.93 647.813 269.87C639.601 278.392 628.318 281.891 616.791 282.102C610.868 281.539 604.148 280.439 599.506 276.421C601.203 275.694 603.555 275.521 605.389 275.064C610.202 273.862 614.929 271.943 619.103 269.231C629.355 262.566 636.383 253.422 638.889 241.302C641.423 229.087 637.169 218.074 630.557 208.043Z" fill="white"/>
<path d="M463.464 266.245L507.42 267.203C510.887 267.437 515.015 267.39 518.356 268.269L515.272 290.729L485.264 290.222L445.448 289.897C442.49 286.075 439.346 282.315 436.614 278.328C434.059 274.599 431.814 270.608 429.539 266.701L463.464 266.245Z" fill="white"/>
<path d="M106.744 266.963C107.126 266.975 107.453 267.083 107.82 267.181C107.869 270.807 107.235 274.609 106.894 278.23L105.701 292.607C83.7434 293.593 60.6894 295.957 39.3935 301.601L30.9935 291.846L19.3301 275.301L106.744 266.963Z" fill="white"/>
<path d="M186.363 285.094L205.895 290.389L204.406 324.884C204.068 332.931 204.058 341.406 202.795 349.359L201.692 349.662C198.567 350.531 195.161 350.215 191.939 350.218L176.235 350.352C161.666 350.905 147.38 352.054 133.025 354.679L132.015 354.701C130.105 353.729 128.52 351.864 127.032 350.341C122.34 345.54 117.67 340.066 114.193 334.313L171.289 332.379C174.165 332.401 181.569 333.52 183.562 331.784C184.462 331.001 185.092 330.042 185.197 328.832C185.393 326.548 184.358 324.012 184.447 321.524L186.363 285.094Z" fill="white"/>
<path d="M595.695 282.446C602.689 287.203 609.102 289.386 617.355 290.97L608.447 349.678C608.202 351.033 607.906 351.908 606.915 352.919C606.391 353.449 605.252 354.508 604.58 354.781C603.646 355.159 601.67 354.911 600.622 354.899L590.894 354.851L541.949 354.839L535.983 355.01L521.156 333.299L588.696 334.477L595.695 282.446Z" fill="white"/>
<path d="M239.022 276.35C235.118 270.543 232.225 263.515 229.896 256.957C219.764 228.432 218.276 195.829 221.291 165.911C225.401 125.131 238.377 82.0904 271.247 55.2738C290.01 39.9666 313.365 34.373 337.199 34.7386C343.535 34.8361 349.668 35.5724 355.952 36.2254L355.836 36.6805C347.94 36.4683 340.181 36.5476 332.364 37.8029C312.895 40.9287 292.813 50.591 278.469 64.2522C252.608 88.8823 240.079 123.288 234.442 157.88C232.409 170.354 231.072 183.04 230.792 195.681C230.417 212.602 230.633 229.534 233.009 246.321L236.219 263.863L237.758 270.707C238.219 272.426 239.128 274.553 239.022 276.35Z" fill="#FEFEFE"/>
<path d="M177.166 199.552C183.96 199.058 191.612 201.501 197.01 205.63C203.611 210.679 207.577 218.028 208.574 226.215C209.536 234.114 207.05 242.776 202.113 248.994C196.019 256.671 188.358 259.89 178.88 261.039C170.753 261.255 163.84 259.475 157.48 254.204C151.33 249.107 147.03 241.875 146.406 233.805C145.757 225.392 148.419 216.74 153.911 210.312C160.214 202.935 167.81 200.212 177.166 199.552Z" fill="#FEFEFE"/>
<path d="M159.294 218.118C159.882 218.005 160.41 217.903 161.008 218.002C162.287 218.213 163.165 218.98 163.85 220.051C165.527 222.67 165.617 226.314 164.966 229.28C164.446 231.652 163.353 233.237 161.309 234.519C160.537 234.795 159.807 234.668 159.009 234.595C158.001 233.888 157.343 233.243 156.761 232.141C155.21 229.203 155.131 225.44 156.058 222.288C156.662 220.235 157.412 219.148 159.294 218.118Z" fill="#303030"/>
<path d="M592.358 201.312C600.485 200.544 608.197 201.886 615.122 206.431C622.714 211.415 627.145 218.118 628.916 226.996C630.198 233.426 628.911 239.998 625.214 245.423C619.32 254.077 610.224 257.971 600.297 259.837C591.51 260.932 582.255 259.93 574.902 254.548C569.155 250.342 564.952 243.891 563.956 236.78C562.879 229.077 564.463 220.397 569.195 214.111C574.965 206.44 583.018 202.646 592.358 201.312Z" fill="#FEFEFE"/>
<path d="M577.459 220.112C578.513 220.067 579.789 219.936 580.808 220.244C582.158 220.652 583.764 221.966 584.379 223.236C585.307 225.161 585.353 227.571 584.504 229.527C583.593 231.647 582.198 232.629 580.108 233.423C579.344 233.621 578.547 233.517 577.79 233.307C575.859 232.767 574.179 231.424 573.279 229.624C572.373 227.804 572.459 226.055 573.148 224.179C574.008 221.827 575.312 221.07 577.459 220.112Z" fill="#303030"/>
<path d="M208.243 12.846L223.183 24.3367C226.292 26.846 229.56 29.2915 232.39 32.1186C232.465 32.1944 233.007 32.7391 233.021 32.7653C233.39 33.4542 228.199 94.2107 227.473 99.1679C226.99 102.465 224.899 106.17 223.763 109.349L219.19 124.326C212.833 148.064 210.367 172.468 210.488 196.993L210.957 204.716C205.857 199.459 200.912 195.423 194.131 192.498L208.243 12.846Z" fill="white"/>
<path d="M430.498 285.665C433.278 288.187 435.455 291.677 438.08 294.412C438.681 295.037 440.544 297.143 441.182 297.354C442.132 297.667 443.832 297.476 444.883 297.487L453.847 297.569L451.351 301.903C447.747 307.782 443.563 312.981 439.009 318.139C422.691 336.62 402.496 349.118 378.444 354.812C349.47 361.672 319.71 358.277 294.105 342.436C284.364 336.266 275.73 328.728 267.98 320.195C271.786 322.204 275.597 324.381 279.58 326.016C307.708 337.563 338.959 336.708 367.912 329.115C392.451 322.681 417.4 308.106 430.498 285.665Z" fill="white"/>
<path d="M631.633 19.9481C642.437 28.5975 649.101 40.6185 658.794 50.2876C656.943 56.0557 655.958 62.2875 654.773 68.2307L649.482 94.4537L631.012 194.681L630.044 200.566C628.193 200.475 625.443 200.582 623.734 199.962C622.105 199.372 620.493 198.176 618.956 197.355C616.074 195.819 613.437 194.875 610.276 194.088C610.025 192.856 610.293 191.404 610.396 190.141L611.159 182.304L614.912 149.441L631.633 19.9481Z" fill="white"/>
<path d="M443.86 253.953L426.149 254.618C425.457 242.393 427.124 230.199 429.805 218.288C435.016 195.141 444.653 173.517 455.854 152.712C466.343 133.231 478.125 114.652 490.596 96.391L525.947 47.6379L548.397 18.548L623.217 19.6669L622.004 28.0454L566.246 27.4762L551.467 46.4898C513.475 94.8763 478.113 145.395 455.919 203.221C449.883 218.944 443.87 236.971 443.86 253.953Z" fill="#FEFEFE"/>
<path d="M32.2802 260.02L11.8136 262.602L10.6049 255.778C9.53015 244.389 11.4351 232.573 13.9933 221.506C18.9908 199.886 27.348 179.673 37.1411 159.825C50.8258 132.09 67.4789 105.932 84.7379 80.3207C99.9524 57.7432 115.788 35.3881 133.187 14.4309L198.315 11.0467L197.631 19.6447L159.544 24.2146L152.529 24.867C152.04 24.9201 150.62 24.9269 150.227 25.1282C149.821 25.3364 148.857 26.8044 148.549 27.2036L138.622 40.9185L117.636 69.6177C99.9581 94.0173 82.9183 118.429 67.6195 144.419C53.4229 168.537 40.4689 193.878 34.0691 221.3C31.4925 232.339 29.8027 243.892 31.3165 255.214C31.5329 256.837 31.7363 258.469 32.2802 260.02Z" fill="#FEFEFE"/>
<path d="M32.2796 260.02C31.7357 258.469 31.5324 256.837 31.3159 255.214C29.8021 243.892 31.4919 232.339 34.0685 221.3C40.4683 193.878 53.4223 168.537 67.619 144.419C82.9177 118.429 99.9575 94.0174 117.636 69.6177L138.621 40.9185L148.548 27.2036C148.857 26.8044 149.82 25.3364 150.226 25.1283C150.619 24.9269 152.039 24.9201 152.529 24.8671L159.543 24.2146L197.631 19.6447L183.63 190.104C180.639 190.076 177.575 189.954 174.602 190.315C165.719 191.391 158.055 195.33 151.685 201.581C143.47 209.641 138.558 219.458 138.584 231.095C138.608 241.923 143.111 252.988 150.822 260.615C157.831 267.547 166.603 272.068 176.361 273.476L173.364 315.192L112.485 317.382L115.944 274.576L117.006 263.329C117.206 261.328 117.627 259.103 117.559 257.1C117.529 256.188 117.272 255.463 116.701 254.744C115.866 253.696 114.472 252.613 113.098 252.532C109.491 252.318 105.721 252.79 102.123 253.049L80.0518 255.05L32.2796 260.02Z" fill="#FF5F2A"/>
<path d="M128.96 127.559L129.368 127.569C129.758 128.474 129.438 129.667 129.331 130.624L128.499 138.08L123.751 182.287L122.826 190.934C122.66 192.547 122.638 194.491 122.101 196.013C121.701 197.146 120.545 198.059 119.457 198.484C117.896 199.093 115.941 199.053 114.283 199.165L104.883 199.823C99.2483 200.28 93.3194 201.234 87.697 201.367C86.8251 201.387 86.001 201.04 85.207 200.715C84.2411 199.832 83.4398 198.806 83.3532 197.446C83.1784 194.681 85.0533 191.229 86.0995 188.693C91.7675 174.954 99.7608 163.543 108.787 151.855L128.96 127.559Z" fill="#303030"/>
<path d="M118.359 158.221L118.905 158.288L115.134 191.825L97.0732 193.694C96.3812 193.478 96.6261 193.682 96.2793 193.161C101.922 180.663 109.3 168.527 118.359 158.221Z" fill="white"/>
<path d="M443.859 253.953C443.869 236.971 449.883 218.944 455.918 203.221C478.113 145.395 513.475 94.8762 551.466 46.4898L566.246 27.4762L622.003 28.0454L597.661 192.113C585.023 193.252 573.633 196.052 565.112 206.319C558.147 214.715 555.191 226.806 556.171 237.589C557.15 248.383 564.224 259.452 572.545 266.225C576.458 269.409 580.513 271.523 585.251 273.198L580.53 316.011L518.937 315.775L522.152 292.34L525.825 267.495C526.426 263.524 528.049 258.066 527.526 254.128C526.747 253.298 526.17 252.914 525 252.889L443.859 253.953Z" fill="#FF5F2A"/>
<path d="M543.858 130.411C544.65 130.2 545.145 130.276 545.937 130.394C546.865 131.276 547.292 131.515 547.252 132.907C547.19 134.903 546.552 137.091 546.13 139.049L543.693 150.442L537.519 184.817L536.618 190.843C536.385 192.814 536.57 197.63 534.986 198.88C534.468 199.288 533.96 199.556 533.299 199.648C529.191 200.222 524.411 199.649 520.254 199.563C514.056 199.436 507.748 199.721 501.584 199.012L500.887 198.836C499.807 198.517 498.719 197.819 498.239 196.755C497.586 195.306 498.097 193.509 498.63 192.104C501.371 184.89 505.044 178.214 508.966 171.594C516.162 159.45 524.729 147.916 534.729 137.941C537.308 135.368 540.521 131.902 543.858 130.411Z" fill="#303030"/>
<path d="M535.235 159.29L535.692 159.485C533.764 170.419 530.627 181.466 529.935 192.559L513.542 192.484L512.68 192.091C513.148 190.026 514.717 187.883 515.807 186.059C521.478 176.564 528.252 167.835 535.235 159.29Z" fill="white"/>
<path d="M355.951 36.2253C381.13 39.5132 406.381 53.3661 421.939 73.6948C435.055 90.8333 443.149 110.335 446.25 131.737L447.949 149.656C441.428 159.714 436.242 171.122 431.785 182.251C423.559 202.795 417.218 224.453 415.812 246.641C415.521 251.231 414.983 256.758 415.853 261.276C416.601 265.155 419.539 269.635 421.838 272.835C419.1 276.883 416.297 280.909 412.986 284.516C395.305 303.776 369.094 315.761 343.751 320.621C316.907 325.769 287.511 321.1 264.754 305.581C255.651 299.374 248.323 291.217 242.235 282.079C241.192 280.513 239.556 278.39 239.054 276.621L239.021 276.35C239.127 274.553 238.218 272.426 237.757 270.707L236.218 263.862L233.008 246.321C230.632 229.534 230.416 212.602 230.791 195.681C231.071 183.04 232.408 170.354 234.441 157.88C240.078 123.288 252.607 88.8822 278.468 64.2522C292.812 50.5909 312.894 40.9287 332.363 37.8028C340.18 36.5476 347.939 36.4683 355.835 36.6805L355.951 36.2253Z" fill="#FF5F2A"/>
<path d="M309.217 63.7395C310.134 63.5656 310.995 63.4144 311.91 63.6967C312.8 63.9716 313.729 64.6469 314.129 65.5098C314.557 66.4342 314.547 67.994 314.185 68.947C313.73 70.143 312.826 70.6203 311.716 71.1085C311.109 71.2665 310.384 71.4005 309.758 71.3207C308.819 71.2015 307.844 70.5473 307.328 69.762C306.703 68.8113 306.476 67.5378 306.769 66.4365C307.14 65.0501 308.037 64.4307 309.217 63.7395Z" fill="#303030"/>
<path d="M283.522 85.1319C284.079 85.0486 284.627 84.9562 285.19 85.0435C286.37 85.226 287.676 86.1562 288.277 87.1839C288.796 88.073 288.913 89.3545 288.602 90.3326C288.085 91.9568 286.717 92.5904 285.332 93.3461C284.585 93.4145 283.8 93.471 283.072 93.24C282.159 92.9497 281.25 92.0675 280.826 91.2188C280.333 90.2339 280.193 89.1041 280.547 88.0542C281.078 86.4835 282.067 85.7821 283.522 85.1319Z" fill="#303030"/>
<path d="M295.449 73.0094C296.225 72.8634 297.13 72.7236 297.909 72.8799C298.905 73.0795 299.905 73.6344 300.468 74.4985C301.143 75.5353 301.361 76.7306 301.074 77.934C300.702 79.4949 299.858 80.0864 298.545 80.8945C297.7 81.093 296.703 81.2452 295.841 81.0696C294.844 80.8666 293.854 80.1337 293.353 79.248C292.758 78.1958 292.502 76.6457 292.889 75.4874C293.327 74.1751 294.285 73.6162 295.449 73.0094Z" fill="#303030"/>
<path d="M333.141 96.8729L334.466 96.7919C345.256 96.4201 356.46 100.178 364.237 107.776C380.386 123.554 383.163 150.469 383.283 171.947C383.377 188.591 381.42 205.526 376.729 221.505C373.048 234.042 367.586 246.488 358.25 255.882C348.86 265.33 339.544 269.933 326.139 269.981C317.006 269.03 308.055 265.557 301.092 259.49C283.291 243.979 277.445 217.382 275.881 194.744C274.119 169.246 277.189 136.407 294.713 116.317C305.095 104.416 317.246 97.9126 333.141 96.8729Z" fill="#303030"/>
<path d="M337.232 112.55L340.283 112.476C350.615 112.906 358.194 116.401 365.208 124.012C351.019 128.686 340.985 137.863 333.737 150.763C322.427 170.891 318.168 194.568 317.98 217.461C317.886 228.831 318.647 239.69 321.728 250.687C322.347 251.976 322.738 253.603 323.202 254.97C320.981 253.878 318.876 252.696 316.944 251.132C302.549 239.473 296.788 218.761 295.051 201.046C292.718 177.255 294.777 145.884 310.584 126.797C317.531 118.408 326.391 113.572 337.232 112.55Z" fill="white"/>
<path d="M366.145 130.055L366.94 130.001C370.882 137.656 373.146 146.112 374.138 154.646C376.216 172.542 375.485 190.354 371.76 207.985C369.139 220.385 364.959 232.817 356.992 242.85C350.897 250.527 343.127 255.405 333.337 256.503L330.047 256.514C329.042 255.753 328.737 254.441 328.289 253.274C323.917 241.903 323.479 228.771 323.836 216.71C324.377 198.41 326.869 179.347 334.44 162.507C338.913 152.554 345.308 142.437 354.353 136.055C357.994 133.486 362.003 131.637 366.145 130.055Z" fill="#FEFEFE"/>
</svg>
